<?xml version="1.0" standalone="no"?><!DOCTYPE svg PUBLIC "-//W3C//DTD SVG 1.1//EN" "http://www.w3.org/Graphics/SVG/1.1/DTD/svg11.dtd"><svg t="1720427249402" class="icon" viewBox="0 0 1037 1024" version="1.1" xmlns="http://www.w3.org/2000/svg" p-id="8519" xmlns:xlink="http://www.w3.org/1999/xlink" width="202.5390625" height="200"><path d="M973.564004 959.857647c0 15.60777-12.763742 28.383649-28.375558 28.383649H108.950975c-15.60777 0-28.379603-12.767787-28.379603-28.383649v-180.715163c0-15.611816 12.767787-28.383649 28.379603-28.383649h836.241517c15.603725 0 28.375558 12.767787 28.375558 28.383649v180.715163h-0.004046z" fill="#A8A8BD" p-id="8520"></path><path d="M190.404279 866.530624m-36.895506 0a36.895507 36.895507 0 1 0 73.791013 0 36.895507 36.895507 0 1 0-73.791013 0Z" fill="#00DFB3" p-id="8521"></path><path d="M190.404279 919.604325c-29.265581 0-53.077747-23.80812-53.077746-53.073701s23.812166-53.077747 53.077746-53.077746 53.077747 23.812166 53.077747 53.077746-23.812166 53.073701-53.077747 53.073701z m0-73.786968a20.73754 20.73754 0 0 0-20.713267 20.713267c0 11.41657 9.292651 20.709221 20.713267 20.709222s20.713267-9.292651 20.713267-20.709222a20.73754 20.73754 0 0 0-20.713267-20.713267z" fill="#6E6E96" p-id="8522"></path><path d="M672.756393 832.899884h234.593931v54.865884h-234.593931z" fill="#E0E0E0" p-id="8523"></path><path d="M907.350324 903.943963h-234.593931a16.18224 16.18224 0 0 1-16.18224-16.18224V832.899884a16.18224 16.18224 0 0 1 16.18224-16.18224h234.593931a16.18224 16.18224 0 0 1 16.18224 16.18224v54.865884a16.18224 16.18224 0 0 1-16.18224 16.178195z m-218.411691-32.36448h202.229451v-22.501404h-202.229451v22.501404zM553.558015 903.943963a16.18224 16.18224 0 0 1-16.18224-16.18224V832.899884a16.18224 16.18224 0 0 1 32.36448 0v54.865884a16.18224 16.18224 0 0 1-16.18224 16.178195zM490.779015 903.943963a16.18224 16.18224 0 0 1-16.18224-16.18224V832.899884a16.18224 16.18224 0 0 1 32.36448 0v54.865884a16.18224 16.18224 0 0 1-16.18224 16.178195zM430.989685 903.943963a16.18224 16.18224 0 0 1-16.18224-16.18224V832.899884a16.18224 16.18224 0 0 1 32.364479 0v54.865884a16.18224 16.18224 0 0 1-16.182239 16.178195zM371.180126 903.943963a16.18224 16.18224 0 0 1-16.18224-16.18224V832.899884a16.18224 16.18224 0 0 1 32.36448 0v54.865884a16.18224 16.18224 0 0 1-16.18224 16.178195z" fill="#6E6E96" p-id="8524"></path><path d="M947.085814 941.782085H110.844297c-15.60777 0-28.379603-45.128221-28.379603-60.744083v62.629314c0 15.60777 12.767787 28.387694 28.379603 28.387694h836.245563c15.603725 0 28.383649-12.771833 28.383648-28.387694v-62.629314c-0.004046 15.615861-12.775878 60.744083-28.387694 60.744083z" fill="#6E6E96" opacity=".25" p-id="8525"></path><path d="M945.200583 768.834397H108.950975c-15.60777 0-28.379603 24.904467-28.379603 40.516283v24.588913c0-15.599679 12.767787-40.512237 28.379603-40.512237h836.241517c15.603725 0 28.375558 24.904467 28.375558 40.512237v-24.588913c-0.004046-15.611816-12.767787-40.516283-28.367467-40.516283z" fill="#FFFFFF" opacity=".19" p-id="8526"></path><path d="M945.192492 1004.41949H108.950975c-24.572731 0-44.561843-19.989112-44.561843-44.565889v-180.715163c0-24.572731 19.989112-44.565889 44.561843-44.565889h836.241517c24.568686 0 44.557797 19.989112 44.557797 44.565889v180.715163c-0.004046 24.576777-19.989112 44.565889-44.557797 44.565889zM108.950975 766.941075a12.213546 12.213546 0 0 0-12.197363 12.201409v180.715163a12.217591 12.217591 0 0 0 12.197363 12.201409h836.241517a12.2095 12.2095 0 0 0 12.193318-12.201409v-180.715163a12.2095 12.2095 0 0 0-12.193318-12.201409H108.950975z" fill="#6E6E96" p-id="8527"></path><path d="M763.498303 252.196162c0.016182-1.063982 0.084957-2.099646 0.084957-3.171719 0-112.19956-98.007736-203.172067-218.889067-203.172066-104.084167 0-191.13248 67.439485-213.358787 157.780884a140.931127 140.931127 0 0 0-10.340451-0.416693c-71.905783 0-130.198256 54.101273-130.198256 120.840876 0 14.297009 2.698388 28.019548 7.609698 40.759016-20.19139 26.474144-32.097473 58.781986-32.097473 93.678987 0 88.460214 76.242623 160.365997 171.066503 162.275501v0.097093h336.3074c115.298459 0 208.767076-86.744897 208.767076-193.758048 0.004046-77.140737-48.615494-143.754928-118.9516-174.913831z" fill="#A8A8BD" p-id="8528"></path><path d="M774.154308 251.949383c0.805066 6.881497 1.241987 13.860088 1.241987 20.943864 0 1.01139-0.064729 2.002552-0.080911 3.013942 51.495933 22.849323 90.685272 65.817215 105.880395 117.94021-9.725526-61.387327-50.512862-113.393-107.041471-141.898016z m-228.509409-210.955724c-104.076075 0-191.120344 67.439485-213.350695 157.772793a148.010857 148.010857 0 0 0-10.340451-0.416693c-71.905783 0-130.198256 54.101273-130.198257 120.840876 0 14.3051 2.694343 28.027639 7.609699 40.763062-20.19139 26.47819-32.097473 58.773895-32.097473 93.683032 0 78.637594 60.258616 144.131165 140.23529 159.075463-57.924327-24.042763-98.303061-78.034806-98.303061-140.838078 0-33.157409 11.287112-63.838936 30.426656-88.990183a107.348933 107.348933 0 0 1-7.213233-38.720054c0-63.385833 55.254258-114.776582 123.417898-114.776582 3.301177 0 6.557853 0.161822 9.798346 0.396465 21.069276-85.814418 103.582517-149.871814 202.245633-149.871814 85.349178 0 158.642588 47.943931 190.509464 116.439307-23.177013-89.123686-109.598265-155.357594-212.739816-155.357594z" fill="#FFFFFF" opacity=".15" p-id="8529"></path><path d="M673.678781 637.054327h-336.307399c-0.748429 0-1.480675-0.052592-2.200785-0.149686-49.242556-1.432128-95.349803-20.235891-130.020252-53.061564-35.483606-33.606467-55.031752-78.119763-55.031752-125.343585 0-34.443897 10.425408-67.572988 30.236516-96.353101a128.798492 128.798492 0 0 1-5.744696-38.084902c0-74.988499 64.676367-136.100728 144.555949-137.015024 29.200852-93.302749 120.015582-157.372282 225.51974-157.372283 127.071038 0 230.916517 94.56901 234.94994 212.246258 72.629938 36.288673 118.996101 107.907221 118.988009 185.201689 0.004046 115.751562-100.904356 209.932197-224.94527 209.932198z m-334.515216-32.36448h334.515216c106.191903 0 192.584836-79.657076 192.584836-177.575809 0.008091-67.848086-42.903163-130.703951-109.319121-160.123263a16.190331 16.190331 0 0 1-9.628433-15.033301l0.052593-1.719363c0.012137-0.404556 0.032364-0.805066 0.032364-1.213668 0-103.105141-90.936097-186.989827-202.706827-186.989827-95.29721 0-176.57251 59.81765-197.641786 145.4662a16.190331 16.190331 0 0 1-16.898304 12.274229 125.218172 125.218172 0 0 0-9.155103-0.372192c-62.868002 0-114.016016 46.948723-114.016016 104.658636 0 11.950584 2.196739 23.702936 6.525488 34.937456a16.174149 16.174149 0 0 1-2.233149 15.632044c-18.832082 24.690052-28.784159 53.688626-28.784159 83.864458 0 78.831781 69.628132 144.373898 155.211954 146.097307 0.489513 0.008091 0.979026 0.040456 1.460447 0.097093z" fill="#6E6E96" p-id="8530"></path><path d="M767.479134 250.128881c0.024273-1.055891 0.080911-2.099646 0.080911-3.163628 0-92.740416-66.994473-170.924908-158.492902-195.267042 66.189406 32.4373 111.329764 96.915434 111.329764 171.212143 0 1.023527-0.064729 34.629993-0.076865 35.637337 67.00661 29.678228 113.312089 60.525623 113.312089 134.01322 0 101.931929-89.026592 184.566536-198.847363 184.566536H314.404738v-0.084957c-56.302058-1.140848-105.718573-28.189462-134.963926-68.802838 22.914052 63.163328 86.518345 108.955021 161.915446 110.488288v0.084957h336.323582c115.286322 0 208.758985-86.740851 208.758985-193.754003-0.004046-77.152874-48.611448-143.775155-118.959691-174.930013z" fill="#6E6E96" opacity=".25" p-id="8531"></path></svg>