<?xml version="1.0" standalone="no"?><!DOCTYPE svg PUBLIC "-//W3C//DTD SVG 1.1//EN" "http://www.w3.org/Graphics/SVG/1.1/DTD/svg11.dtd"><svg t="1720427275519" class="icon" viewBox="0 0 1024 1024" version="1.1" xmlns="http://www.w3.org/2000/svg" p-id="9575" xmlns:xlink="http://www.w3.org/1999/xlink" width="200" height="200"><path d="M0 0h1024v1024H0z" fill="#FFFFFF" p-id="9576"></path><path d="M842 984H182c-44.112 0-80-35.888-80-80V120c0-44.112 35.888-80 80-80h660c44.112 0 80 35.888 80 80v784c0 44.112-35.888 80-80 80z" fill="#D8DDE3" p-id="9577"></path><path d="M182 80c-22.056 0-40 17.944-40 40v784c0 22.056 17.944 40 40 40h660c22.056 0 40-17.944 40-40V120c0-22.056-17.944-40-40-40H182m0-80h660c66.274 0 120 53.726 120 120v784c0 66.274-53.726 120-120 120H182c-66.274 0-120-53.726-120-120V120C62 53.726 115.726 0 182 0z" fill="#505873" p-id="9578"></path><path d="M346 311h-68c-10.476 0-19-8.524-19-19v-68c0-10.476 8.524-19 19-19h68c10.476 0 19 8.524 19 19v68c0 10.476-8.524 19-19 19z" fill="#505873" p-id="9579"></path><path d="M278 206c-9.926 0-18 8.074-18 18v68c0 9.926 8.074 18 18 18h68c9.926 0 18-8.074 18-18v-68c0-9.926-8.074-18-18-18h-68m0-2h68c11.046 0 20 8.954 20 20v68c0 11.046-8.954 20-20 20h-68c-11.046 0-20-8.954-20-20v-68c0-11.046 8.954-20 20-20z" fill="#505873" p-id="9580"></path><path d="M546 311h-68c-10.476 0-19-8.524-19-19v-68c0-10.476 8.524-19 19-19h68c10.476 0 19 8.524 19 19v68c0 10.476-8.524 19-19 19z" fill="#505873" p-id="9581"></path><path d="M478 206c-9.926 0-18 8.074-18 18v68c0 9.926 8.074 18 18 18h68c9.926 0 18-8.074 18-18v-68c0-9.926-8.074-18-18-18h-68m0-2h68c11.046 0 20 8.954 20 20v68c0 11.046-8.954 20-20 20h-68c-11.046 0-20-8.954-20-20v-68c0-11.046 8.954-20 20-20z" fill="#505873" p-id="9582"></path><path d="M746 311h-68c-10.476 0-19-8.524-19-19v-68c0-10.476 8.524-19 19-19h68c10.476 0 19 8.524 19 19v68c0 10.476-8.524 19-19 19z" fill="#505873" p-id="9583"></path><path d="M678 206c-9.926 0-18 8.074-18 18v68c0 9.926 8.074 18 18 18h68c9.926 0 18-8.074 18-18v-68c0-9.926-8.074-18-18-18h-68m0-2h68c11.046 0 20 8.954 20 20v68c0 11.046-8.954 20-20 20h-68c-11.046 0-20-8.954-20-20v-68c0-11.046 8.954-20 20-20z" fill="#505873" p-id="9584"></path><path d="M578 512H298a40 40 0 0 1 0-80h280a40 40 0 0 1 0 80z" fill="#FF402A" p-id="9585"></path><path d="M726 656H298a40 40 0 0 1 0-80h428a40 40 0 0 1 0 80z" fill="#505873" p-id="9586"></path></svg>